<svg xmlns="http://www.w3.org/2000/svg" xmlns:xlink="http://www.w3.org/1999/xlink" width="2000" zoomAndPan="magnify" viewBox="0 0 1500 1499.999933" height="2000" preserveAspectRatio="xMidYMid meet" version="1.0"><defs><g/><clipPath id="dab9c9a724"><path d="M 0 406.300781 L 1500 406.300781 L 1500 1083.785156 L 0 1083.785156 Z M 0 406.300781 " clip-rule="nonzero"/></clipPath><clipPath id="0be5ca3591"><path d="M 70.5 406.300781 L 1429.5 406.300781 C 1468.4375 406.300781 1500 437.867188 1500 476.800781 L 1500 1013.285156 C 1500 1052.222656 1468.4375 1083.785156 1429.5 1083.785156 L 70.5 1083.785156 C 31.5625 1083.785156 0 1052.222656 0 1013.285156 L 0 476.800781 C 0 437.867188 31.5625 406.300781 70.5 406.300781 Z M 70.5 406.300781 " clip-rule="nonzero"/></clipPath><clipPath id="1f18206475"><path d="M 0 0.300781 L 1500 0.300781 L 1500 677.785156 L 0 677.785156 Z M 0 0.300781 " clip-rule="nonzero"/></clipPath><clipPath id="7fbc212bbc"><path d="M 70.5 0.300781 L 1429.5 0.300781 C 1468.4375 0.300781 1500 31.867188 1500 70.800781 L 1500 607.285156 C 1500 646.222656 1468.4375 677.785156 1429.5 677.785156 L 70.5 677.785156 C 31.5625 677.785156 0 646.222656 0 607.285156 L 0 70.800781 C 0 31.867188 31.5625 0.300781 70.5 0.300781 Z M 70.5 0.300781 " clip-rule="nonzero"/></clipPath><clipPath id="3e4d12e23d"><rect x="0" width="1500" y="0" height="678"/></clipPath><clipPath id="3a22c1527f"><rect x="0" width="755" y="0" height="951"/></clipPath><clipPath id="d106bc322e"><rect x="0" width="755" y="0" height="951"/></clipPath></defs><g clip-path="url(#dab9c9a724)"><g clip-path="url(#0be5ca3591)"><g transform="matrix(1, 0, 0, 1, 0, 406)"><g clip-path="url(#3e4d12e23d)"><g clip-path="url(#1f18206475)"><g clip-path="url(#7fbc212bbc)"><path fill="#0f1117" d="M 0 0.300781 L 1500.523438 0.300781 L 1500.523438 677.785156 L 0 677.785156 Z M 0 0.300781 " fill-opacity="1" fill-rule="nonzero"/></g></g></g></g></g></g><g transform="matrix(1, 0, 0, 1, 52, 270)"><g clip-path="url(#3a22c1527f)"><g fill="#ffffff" fill-opacity="1"><g transform="translate(1.396866, 726.70272)"><g><path d="M 53.21875 0 L 53.21875 -524.296875 L 244.671875 -524.296875 L 378.921875 -147.75 L 382.890625 -147.75 L 513.96875 -524.296875 L 696.6875 -524.296875 L 696.6875 0 L 575.140625 0 L 582.28125 -394.015625 L 573.546875 -394.015625 L 425 0 L 320.140625 0 L 173.96875 -394.015625 L 165.234375 -394.015625 L 172.375 0 Z M 53.21875 0 "/></g></g></g></g></g><g transform="matrix(1, 0, 0, 1, 701, 270)"><g clip-path="url(#d106bc322e)"><g fill="#ca7f92" fill-opacity="1"><g transform="translate(0.0646409, 726.70272)"><g><path d="M 53.21875 0 L 53.21875 -524.296875 L 244.671875 -524.296875 L 378.921875 -147.75 L 382.890625 -147.75 L 513.96875 -524.296875 L 696.6875 -524.296875 L 696.6875 0 L 575.140625 0 L 582.28125 -394.015625 L 573.546875 -394.015625 L 425 0 L 320.140625 0 L 173.96875 -394.015625 L 165.234375 -394.015625 L 172.375 0 Z M 53.21875 0 "/></g></g></g></g></g></svg>