<svg xmlns="http://www.w3.org/2000/svg" xmlns:xlink="http://www.w3.org/1999/xlink" width="2000" zoomAndPan="magnify" viewBox="0 0 1500 1499.999933" height="2000" preserveAspectRatio="xMidYMid meet" version="1.0"><defs><g/><clipPath id="0a9b78f5ac"><rect x="0" width="755" y="0" height="951"/></clipPath><clipPath id="36b4e8bd6c"><rect x="0" width="755" y="0" height="951"/></clipPath></defs><g transform="matrix(1, 0, 0, 1, 52, 270)"><g clip-path="url(#0a9b78f5ac)"><g fill="#ffffff" fill-opacity="1"><g transform="translate(1.396866, 726.70272)"><g><path d="M 53.21875 0 L 53.21875 -524.296875 L 244.671875 -524.296875 L 378.921875 -147.75 L 382.890625 -147.75 L 513.96875 -524.296875 L 696.6875 -524.296875 L 696.6875 0 L 575.140625 0 L 582.28125 -394.015625 L 573.546875 -394.015625 L 425 0 L 320.140625 0 L 173.96875 -394.015625 L 165.234375 -394.015625 L 172.375 0 Z M 53.21875 0 "/></g></g></g></g></g><g transform="matrix(1, 0, 0, 1, 701, 270)"><g clip-path="url(#36b4e8bd6c)"><g fill="#ca7f92" fill-opacity="1"><g transform="translate(0.0646409, 726.70272)"><g><path d="M 53.21875 0 L 53.21875 -524.296875 L 244.671875 -524.296875 L 378.921875 -147.75 L 382.890625 -147.75 L 513.96875 -524.296875 L 696.6875 -524.296875 L 696.6875 0 L 575.140625 0 L 582.28125 -394.015625 L 573.546875 -394.015625 L 425 0 L 320.140625 0 L 173.96875 -394.015625 L 165.234375 -394.015625 L 172.375 0 Z M 53.21875 0 "/></g></g></g></g></g></svg>